{
	"patcher" : 	{
		"fileversion" : 1,
		"appversion" : 		{
			"major" : 8,
			"minor" : 6,
			"revision" : 3,
			"architecture" : "x64",
			"modernui" : 1
		}
,
		"classnamespace" : "box",
		"rect" : [ 49.0, 100.0, 1566.0, 968.0 ],
		"bglocked" : 0,
		"openinpresentation" : 1,
		"default_fontsize" : 12.0,
		"default_fontface" : 0,
		"default_fontname" : "Arial",
		"gridonopen" : 1,
		"gridsize" : [ 15.0, 15.0 ],
		"gridsnaponopen" : 1,
		"objectsnaponopen" : 1,
		"statusbarvisible" : 2,
		"toolbarvisible" : 1,
		"lefttoolbarpinned" : 0,
		"toptoolbarpinned" : 0,
		"righttoolbarpinned" : 0,
		"bottomtoolbarpinned" : 0,
		"toolbars_unpinned_last_save" : 0,
		"tallnewobj" : 0,
		"boxanimatetime" : 200,
		"enablehscroll" : 1,
		"enablevscroll" : 1,
		"devicewidth" : 0.0,
		"description" : "",
		"digest" : "",
		"tags" : "",
		"style" : "",
		"subpatcher_template" : "",
		"assistshowspatchername" : 0,
		"boxes" : [ 			{
				"box" : 				{
					"id" : "obj-63",
					"maxclass" : "newobj",
					"numinlets" : 1,
					"numoutlets" : 1,
					"outlettype" : [ "bang" ],
					"patching_rect" : [ 1232.0, 8.0, 58.0, 22.0 ],
					"text" : "loadbang"
				}

			}
, 			{
				"box" : 				{
					"id" : "obj-62",
					"maxclass" : "message",
					"numinlets" : 2,
					"numoutlets" : 1,
					"outlettype" : [ "" ],
					"patching_rect" : [ 1232.0, 45.0, 249.0, 22.0 ],
					"text" : "window size 81 463 1586 1025, window exec"
				}

			}
, 			{
				"box" : 				{
					"id" : "obj-31",
					"maxclass" : "newobj",
					"numinlets" : 1,
					"numoutlets" : 2,
					"outlettype" : [ "", "" ],
					"patching_rect" : [ 1232.0, 86.0, 100.0, 22.0 ],
					"save" : [ "#N", "thispatcher", ";", "#Q", "end", ";" ],
					"text" : "thispatcher"
				}

			}
, 			{
				"box" : 				{
					"fontsize" : 18.0,
					"id" : "obj-55",
					"maxclass" : "comment",
					"numinlets" : 1,
					"numoutlets" : 0,
					"patching_rect" : [ 253.0, 822.0, 217.0, 27.0 ],
					"presentation" : 1,
					"presentation_rect" : [ 13.5, 356.0, 49.0, 27.0 ],
					"text" : "OUT",
					"textcolor" : [ 1.0, 0.980392156862745, 0.933333333333333, 1.0 ]
				}

			}
, 			{
				"box" : 				{
					"fontsize" : 18.0,
					"id" : "obj-38",
					"maxclass" : "comment",
					"numinlets" : 1,
					"numoutlets" : 0,
					"patching_rect" : [ 243.0, 313.0, 217.0, 27.0 ],
					"presentation" : 1,
					"presentation_rect" : [ 15.5, 530.0, 111.0, 27.0 ],
					"text" : "TRACKS",
					"textcolor" : [ 1.0, 0.980392156862745, 0.933333333333333, 1.0 ]
				}

			}
, 			{
				"box" : 				{
					"fontsize" : 18.0,
					"id" : "obj-35",
					"maxclass" : "comment",
					"numinlets" : 1,
					"numoutlets" : 0,
					"patching_rect" : [ 135.0, 138.0, 217.0, 27.0 ],
					"presentation" : 1,
					"presentation_rect" : [ 15.5, 242.0, 111.0, 27.0 ],
					"text" : "SCORES",
					"textcolor" : [ 1.0, 0.980392156862745, 0.933333333333333, 1.0 ]
				}

			}
, 			{
				"box" : 				{
					"fontsize" : 18.0,
					"id" : "obj-33",
					"maxclass" : "comment",
					"numinlets" : 1,
					"numoutlets" : 0,
					"patching_rect" : [ 993.0, 13.0, 217.0, 27.0 ],
					"presentation" : 1,
					"presentation_rect" : [ 15.5, 18.0, 111.0, 27.0 ],
					"text" : "LIVE INPUT",
					"textcolor" : [ 1.0, 0.980392156862745, 0.933333333333333, 1.0 ]
				}

			}
, 			{
				"box" : 				{
					"id" : "obj-29",
					"linecount" : 2,
					"maxclass" : "newobj",
					"numinlets" : 0,
					"numoutlets" : 1,
					"outlettype" : [ "" ],
					"patching_rect" : [ 1530.0, 101.0, 60.0, 35.0 ],
					"text" : "key_msg 28 next"
				}

			}
, 			{
				"box" : 				{
					"id" : "obj-28",
					"linecount" : 2,
					"maxclass" : "newobj",
					"numinlets" : 0,
					"numoutlets" : 1,
					"outlettype" : [ "" ],
					"patching_rect" : [ 1466.0, 101.0, 60.0, 35.0 ],
					"text" : "key_msg 29 prev"
				}

			}
, 			{
				"box" : 				{
					"id" : "obj-26",
					"maxclass" : "newobj",
					"numinlets" : 1,
					"numoutlets" : 1,
					"outlettype" : [ "" ],
					"patching_rect" : [ 123.0, 827.0, 78.0, 22.0 ],
					"text" : "prepend midi"
				}

			}
, 			{
				"box" : 				{
					"comment" : "",
					"id" : "obj-25",
					"index" : 2,
					"maxclass" : "outlet",
					"numinlets" : 1,
					"numoutlets" : 0,
					"patching_rect" : [ 123.0, 894.0, 30.0, 30.0 ]
				}

			}
, 			{
				"box" : 				{
					"comment" : "",
					"id" : "obj-27",
					"index" : 1,
					"maxclass" : "outlet",
					"numinlets" : 1,
					"numoutlets" : 0,
					"patching_rect" : [ 29.5, 894.0, 30.0, 30.0 ]
				}

			}
, 			{
				"box" : 				{
					"id" : "obj-24",
					"maxclass" : "newobj",
					"numinlets" : 1,
					"numoutlets" : 1,
					"outlettype" : [ "bang" ],
					"patching_rect" : [ 29.5, 827.0, 63.0, 22.0 ],
					"text" : "closebang"
				}

			}
, 			{
				"box" : 				{
					"id" : "obj-37",
					"linecount" : 2,
					"maxclass" : "newobj",
					"numinlets" : 0,
					"numoutlets" : 1,
					"outlettype" : [ "" ],
					"patching_rect" : [ 1541.0, 163.0, 60.0, 35.0 ],
					"text" : "key_msg 78 last"
				}

			}
, 			{
				"box" : 				{
					"id" : "obj-32",
					"linecount" : 2,
					"maxclass" : "newobj",
					"numinlets" : 0,
					"numoutlets" : 1,
					"outlettype" : [ "" ],
					"patching_rect" : [ 1400.0, 101.0, 60.0, 35.0 ],
					"text" : "key_msg 110 last"
				}

			}
, 			{
				"box" : 				{
					"args" : [ "midi_2" ],
					"bgmode" : 0,
					"border" : 0,
					"clickthrough" : 0,
					"enablehscroll" : 0,
					"enablevscroll" : 0,
					"id" : "obj-23",
					"lockeddragscroll" : 0,
					"lockedsize" : 0,
					"maxclass" : "bpatcher",
					"name" : "djazz.view.repetition_selector.maxpat",
					"numinlets" : 1,
					"numoutlets" : 0,
					"offset" : [ 0.0, 0.0 ],
					"patching_rect" : [ 166.000009000000006, 88.714352720733643, 816.0, 22.0 ],
					"presentation" : 1,
					"presentation_rect" : [ 46.0, 135.0, 816.0, 22.0 ],
					"varname" : "repetition_selector_2",
					"viewvisibility" : 1
				}

			}
, 			{
				"box" : 				{
					"args" : [ "midi_1" ],
					"bgmode" : 0,
					"border" : 0,
					"clickthrough" : 0,
					"enablehscroll" : 0,
					"enablevscroll" : 0,
					"id" : "obj-10",
					"lockeddragscroll" : 0,
					"lockedsize" : 0,
					"maxclass" : "bpatcher",
					"name" : "djazz.view.repetition_selector.maxpat",
					"numinlets" : 1,
					"numoutlets" : 0,
					"offset" : [ 0.0, 0.0 ],
					"patching_rect" : [ 166.000009000000006, 64.714352720733643, 816.0, 22.0 ],
					"presentation" : 1,
					"presentation_rect" : [ 46.0, 111.0, 816.0, 22.0 ],
					"varname" : "repetition_selector_1",
					"viewvisibility" : 1
				}

			}
, 			{
				"box" : 				{
					"bgmode" : 0,
					"border" : 0,
					"clickthrough" : 0,
					"enablehscroll" : 0,
					"enablevscroll" : 0,
					"id" : "obj-1",
					"lockeddragscroll" : 0,
					"lockedsize" : 0,
					"maxclass" : "bpatcher",
					"name" : "djazz.view.midi.midi_in.maxpat",
					"numinlets" : 0,
					"numoutlets" : 1,
					"offset" : [ 0.0, 0.0 ],
					"outlettype" : [ "" ],
					"patching_rect" : [ 138.000008821487427, 11.714353084564209, 845.0, 50.0 ],
					"presentation" : 1,
					"presentation_rect" : [ 18.0, 49.0, 845.0, 50.0 ],
					"varname" : "midi_in",
					"viewvisibility" : 1
				}

			}
, 			{
				"box" : 				{
					"args" : [ 15 ],
					"bgmode" : 0,
					"border" : 0,
					"clickthrough" : 0,
					"enablehscroll" : 0,
					"enablevscroll" : 0,
					"id" : "obj-53",
					"lockeddragscroll" : 0,
					"lockedsize" : 0,
					"maxclass" : "bpatcher",
					"name" : "djazz.view.midi.midi_out_track.maxpat",
					"numinlets" : 2,
					"numoutlets" : 1,
					"offset" : [ 0.0, 0.0 ],
					"outlettype" : [ "" ],
					"patching_rect" : [ 1528.0, 876.0, 90.0, 92.0 ],
					"presentation" : 1,
					"presentation_rect" : [ 1301.5, 385.0, 90.0, 116.0 ],
					"varname" : "out_15",
					"viewvisibility" : 1
				}

			}
, 			{
				"box" : 				{
					"args" : [ 14 ],
					"bgmode" : 0,
					"border" : 0,
					"clickthrough" : 0,
					"enablehscroll" : 0,
					"enablevscroll" : 0,
					"id" : "obj-52",
					"lockeddragscroll" : 0,
					"lockedsize" : 0,
					"maxclass" : "bpatcher",
					"name" : "djazz.view.midi.midi_out_track.maxpat",
					"numinlets" : 2,
					"numoutlets" : 1,
					"offset" : [ 0.0, 0.0 ],
					"outlettype" : [ "" ],
					"patching_rect" : [ 1436.0, 876.0, 90.0, 92.0 ],
					"presentation" : 1,
					"presentation_rect" : [ 1209.5, 385.0, 90.0, 116.0 ],
					"varname" : "out_14",
					"viewvisibility" : 1
				}

			}
, 			{
				"box" : 				{
					"args" : [ 13 ],
					"bgmode" : 0,
					"border" : 0,
					"clickthrough" : 0,
					"enablehscroll" : 0,
					"enablevscroll" : 0,
					"id" : "obj-51",
					"lockeddragscroll" : 0,
					"lockedsize" : 0,
					"maxclass" : "bpatcher",
					"name" : "djazz.view.midi.midi_out_track.maxpat",
					"numinlets" : 2,
					"numoutlets" : 1,
					"offset" : [ 0.0, 0.0 ],
					"outlettype" : [ "" ],
					"patching_rect" : [ 1344.0, 876.0, 90.0, 92.0 ],
					"presentation" : 1,
					"presentation_rect" : [ 1117.5, 385.0, 90.0, 116.0 ],
					"varname" : "out_13",
					"viewvisibility" : 1
				}

			}
, 			{
				"box" : 				{
					"args" : [ 12 ],
					"bgmode" : 0,
					"border" : 0,
					"clickthrough" : 0,
					"enablehscroll" : 0,
					"enablevscroll" : 0,
					"id" : "obj-50",
					"lockeddragscroll" : 0,
					"lockedsize" : 0,
					"maxclass" : "bpatcher",
					"name" : "djazz.view.midi.midi_out_track.maxpat",
					"numinlets" : 2,
					"numoutlets" : 1,
					"offset" : [ 0.0, 0.0 ],
					"outlettype" : [ "" ],
					"patching_rect" : [ 1252.0, 876.0, 90.0, 92.0 ],
					"presentation" : 1,
					"presentation_rect" : [ 1025.5, 385.0, 90.0, 116.0 ],
					"varname" : "out_12",
					"viewvisibility" : 1
				}

			}
, 			{
				"box" : 				{
					"args" : [ 11 ],
					"bgmode" : 0,
					"border" : 0,
					"clickthrough" : 0,
					"enablehscroll" : 0,
					"enablevscroll" : 0,
					"id" : "obj-49",
					"lockeddragscroll" : 0,
					"lockedsize" : 0,
					"maxclass" : "bpatcher",
					"name" : "djazz.view.midi.midi_out_track.maxpat",
					"numinlets" : 2,
					"numoutlets" : 1,
					"offset" : [ 0.0, 0.0 ],
					"outlettype" : [ "" ],
					"patching_rect" : [ 1160.0, 876.0, 90.0, 92.0 ],
					"presentation" : 1,
					"presentation_rect" : [ 933.5, 385.0, 90.0, 116.0 ],
					"varname" : "out_11",
					"viewvisibility" : 1
				}

			}
, 			{
				"box" : 				{
					"args" : [ 10 ],
					"bgmode" : 0,
					"border" : 0,
					"clickthrough" : 0,
					"enablehscroll" : 0,
					"enablevscroll" : 0,
					"id" : "obj-48",
					"lockeddragscroll" : 0,
					"lockedsize" : 0,
					"maxclass" : "bpatcher",
					"name" : "djazz.view.midi.midi_out_track.maxpat",
					"numinlets" : 2,
					"numoutlets" : 1,
					"offset" : [ 0.0, 0.0 ],
					"outlettype" : [ "" ],
					"patching_rect" : [ 1068.0, 876.0, 90.0, 92.0 ],
					"presentation" : 1,
					"presentation_rect" : [ 841.5, 385.0, 90.0, 116.0 ],
					"varname" : "out_10",
					"viewvisibility" : 1
				}

			}
, 			{
				"box" : 				{
					"args" : [ 9 ],
					"bgmode" : 0,
					"border" : 0,
					"clickthrough" : 0,
					"enablehscroll" : 0,
					"enablevscroll" : 0,
					"id" : "obj-47",
					"lockeddragscroll" : 0,
					"lockedsize" : 0,
					"maxclass" : "bpatcher",
					"name" : "djazz.view.midi.midi_out_track.maxpat",
					"numinlets" : 2,
					"numoutlets" : 1,
					"offset" : [ 0.0, 0.0 ],
					"outlettype" : [ "" ],
					"patching_rect" : [ 976.0, 876.0, 90.0, 92.0 ],
					"presentation" : 1,
					"presentation_rect" : [ 749.5, 385.0, 90.0, 116.0 ],
					"varname" : "out_9",
					"viewvisibility" : 1
				}

			}
, 			{
				"box" : 				{
					"args" : [ 8 ],
					"bgmode" : 0,
					"border" : 0,
					"clickthrough" : 0,
					"enablehscroll" : 0,
					"enablevscroll" : 0,
					"id" : "obj-46",
					"lockeddragscroll" : 0,
					"lockedsize" : 0,
					"maxclass" : "bpatcher",
					"name" : "djazz.view.midi.midi_out_track.maxpat",
					"numinlets" : 2,
					"numoutlets" : 1,
					"offset" : [ 0.0, 0.0 ],
					"outlettype" : [ "" ],
					"patching_rect" : [ 884.0, 876.0, 90.0, 92.0 ],
					"presentation" : 1,
					"presentation_rect" : [ 657.5, 385.0, 90.0, 116.0 ],
					"varname" : "out_8",
					"viewvisibility" : 1
				}

			}
, 			{
				"box" : 				{
					"args" : [ 7 ],
					"bgmode" : 0,
					"border" : 0,
					"clickthrough" : 0,
					"enablehscroll" : 0,
					"enablevscroll" : 0,
					"id" : "obj-45",
					"lockeddragscroll" : 0,
					"lockedsize" : 0,
					"maxclass" : "bpatcher",
					"name" : "djazz.view.midi.midi_out_track.maxpat",
					"numinlets" : 2,
					"numoutlets" : 1,
					"offset" : [ 0.0, 0.0 ],
					"outlettype" : [ "" ],
					"patching_rect" : [ 792.0, 876.0, 90.0, 92.0 ],
					"presentation" : 1,
					"presentation_rect" : [ 565.5, 385.0, 90.0, 116.0 ],
					"varname" : "out_7",
					"viewvisibility" : 1
				}

			}
, 			{
				"box" : 				{
					"args" : [ 6 ],
					"bgmode" : 0,
					"border" : 0,
					"clickthrough" : 0,
					"enablehscroll" : 0,
					"enablevscroll" : 0,
					"id" : "obj-44",
					"lockeddragscroll" : 0,
					"lockedsize" : 0,
					"maxclass" : "bpatcher",
					"name" : "djazz.view.midi.midi_out_track.maxpat",
					"numinlets" : 2,
					"numoutlets" : 1,
					"offset" : [ 0.0, 0.0 ],
					"outlettype" : [ "" ],
					"patching_rect" : [ 700.0, 876.0, 90.0, 92.0 ],
					"presentation" : 1,
					"presentation_rect" : [ 473.5, 385.0, 90.0, 116.0 ],
					"varname" : "out_6",
					"viewvisibility" : 1
				}

			}
, 			{
				"box" : 				{
					"args" : [ 5 ],
					"bgmode" : 0,
					"border" : 0,
					"clickthrough" : 0,
					"enablehscroll" : 0,
					"enablevscroll" : 0,
					"id" : "obj-43",
					"lockeddragscroll" : 0,
					"lockedsize" : 0,
					"maxclass" : "bpatcher",
					"name" : "djazz.view.midi.midi_out_track.maxpat",
					"numinlets" : 2,
					"numoutlets" : 1,
					"offset" : [ 0.0, 0.0 ],
					"outlettype" : [ "" ],
					"patching_rect" : [ 608.0, 876.0, 90.0, 92.0 ],
					"presentation" : 1,
					"presentation_rect" : [ 381.5, 385.0, 90.0, 116.0 ],
					"varname" : "out_5",
					"viewvisibility" : 1
				}

			}
, 			{
				"box" : 				{
					"args" : [ 4 ],
					"bgmode" : 0,
					"border" : 0,
					"clickthrough" : 0,
					"enablehscroll" : 0,
					"enablevscroll" : 0,
					"id" : "obj-42",
					"lockeddragscroll" : 0,
					"lockedsize" : 0,
					"maxclass" : "bpatcher",
					"name" : "djazz.view.midi.midi_out_track.maxpat",
					"numinlets" : 2,
					"numoutlets" : 1,
					"offset" : [ 0.0, 0.0 ],
					"outlettype" : [ "" ],
					"patching_rect" : [ 516.0, 876.0, 90.0, 92.0 ],
					"presentation" : 1,
					"presentation_rect" : [ 289.5, 385.0, 90.0, 116.0 ],
					"varname" : "out_4",
					"viewvisibility" : 1
				}

			}
, 			{
				"box" : 				{
					"args" : [ 3 ],
					"bgmode" : 0,
					"border" : 0,
					"clickthrough" : 0,
					"enablehscroll" : 0,
					"enablevscroll" : 0,
					"id" : "obj-41",
					"lockeddragscroll" : 0,
					"lockedsize" : 0,
					"maxclass" : "bpatcher",
					"name" : "djazz.view.midi.midi_out_track.maxpat",
					"numinlets" : 2,
					"numoutlets" : 1,
					"offset" : [ 0.0, 0.0 ],
					"outlettype" : [ "" ],
					"patching_rect" : [ 424.0, 876.0, 90.0, 92.0 ],
					"presentation" : 1,
					"presentation_rect" : [ 197.5, 385.0, 90.0, 116.0 ],
					"varname" : "out_3",
					"viewvisibility" : 1
				}

			}
, 			{
				"box" : 				{
					"args" : [ 2 ],
					"bgmode" : 0,
					"border" : 0,
					"clickthrough" : 0,
					"enablehscroll" : 0,
					"enablevscroll" : 0,
					"id" : "obj-40",
					"lockeddragscroll" : 0,
					"lockedsize" : 0,
					"maxclass" : "bpatcher",
					"name" : "djazz.view.midi.midi_out_track.maxpat",
					"numinlets" : 2,
					"numoutlets" : 1,
					"offset" : [ 0.0, 0.0 ],
					"outlettype" : [ "" ],
					"patching_rect" : [ 332.0, 876.0, 90.0, 92.0 ],
					"presentation" : 1,
					"presentation_rect" : [ 105.5, 385.0, 90.0, 116.0 ],
					"varname" : "out_2",
					"viewvisibility" : 1
				}

			}
, 			{
				"box" : 				{
					"args" : [ 1 ],
					"bgmode" : 0,
					"border" : 0,
					"clickthrough" : 0,
					"enablehscroll" : 0,
					"enablevscroll" : 0,
					"id" : "obj-39",
					"lockeddragscroll" : 0,
					"lockedsize" : 0,
					"maxclass" : "bpatcher",
					"name" : "djazz.view.midi.midi_out_track.maxpat",
					"numinlets" : 2,
					"numoutlets" : 1,
					"offset" : [ 0.0, 0.0 ],
					"outlettype" : [ "" ],
					"patching_rect" : [ 240.0, 876.0, 90.0, 92.0 ],
					"presentation" : 1,
					"presentation_rect" : [ 13.5, 385.0, 90.0, 116.0 ],
					"varname" : "out_1",
					"viewvisibility" : 1
				}

			}
, 			{
				"box" : 				{
					"id" : "obj-22",
					"maxclass" : "newobj",
					"numinlets" : 1,
					"numoutlets" : 2,
					"outlettype" : [ "", "" ],
					"patching_rect" : [ 18.0, 93.130921363830566, 53.0, 22.0 ],
					"text" : "pattrhub"
				}

			}
, 			{
				"box" : 				{
					"comment" : "",
					"id" : "obj-21",
					"index" : 1,
					"maxclass" : "inlet",
					"numinlets" : 0,
					"numoutlets" : 1,
					"outlettype" : [ "" ],
					"patching_rect" : [ 18.0, 11.714353084564209, 30.0, 30.0 ]
				}

			}
, 			{
				"box" : 				{
					"comment" : "",
					"id" : "obj-20",
					"index" : 2,
					"maxclass" : "inlet",
					"numinlets" : 0,
					"numoutlets" : 1,
					"outlettype" : [ "" ],
					"patching_rect" : [ 79.5, 11.714353084564209, 30.0, 30.0 ]
				}

			}
, 			{
				"box" : 				{
					"args" : [ "score_2", "new2", 2 ],
					"bgmode" : 0,
					"border" : 1,
					"clickthrough" : 0,
					"enablehscroll" : 0,
					"enablevscroll" : 0,
					"id" : "obj-18",
					"lockeddragscroll" : 0,
					"lockedsize" : 0,
					"maxclass" : "bpatcher",
					"name" : "djazz.view.score.maxpat",
					"numinlets" : 2,
					"numoutlets" : 1,
					"offset" : [ 0.0, 0.0 ],
					"outlettype" : [ "" ],
					"patching_rect" : [ 69.0, 219.0, 1378.0, 22.0 ],
					"presentation" : 1,
					"presentation_rect" : [ 15.5, 303.0, 1463.0, 23.0 ],
					"varname" : "score_2",
					"viewvisibility" : 1
				}

			}
, 			{
				"box" : 				{
					"args" : [ "score_1", "new", 1 ],
					"bgmode" : 0,
					"border" : 1,
					"clickthrough" : 0,
					"enablehscroll" : 0,
					"enablevscroll" : 0,
					"id" : "obj-19",
					"lockeddragscroll" : 0,
					"lockedsize" : 0,
					"maxclass" : "bpatcher",
					"name" : "djazz.view.score.maxpat",
					"numinlets" : 2,
					"numoutlets" : 1,
					"offset" : [ 0.0, 0.0 ],
					"outlettype" : [ "" ],
					"patching_rect" : [ 69.0, 186.0, 1378.0, 22.0 ],
					"presentation" : 1,
					"presentation_rect" : [ 15.5, 275.0, 1463.0, 23.0 ],
					"varname" : "score_1",
					"viewvisibility" : 1
				}

			}
, 			{
				"box" : 				{
					"args" : [ "midi_track_15", 15 ],
					"bgmode" : 0,
					"border" : 1,
					"clickthrough" : 0,
					"enablehscroll" : 0,
					"enablevscroll" : 0,
					"id" : "obj-15",
					"lockeddragscroll" : 0,
					"lockedsize" : 0,
					"maxclass" : "bpatcher",
					"name" : "djazz.view.track.maxpat",
					"numinlets" : 1,
					"numoutlets" : 1,
					"offset" : [ 0.0, 0.0 ],
					"outlettype" : [ "" ],
					"patching_rect" : [ 243.000008821487427, 770.000000000000227, 1375.23809027671814, 23.749998688697815 ],
					"presentation" : 1,
					"presentation_rect" : [ 15.5, 559.0, 1460.0, 22.0 ],
					"varname" : "track_15",
					"viewvisibility" : 1
				}

			}
, 			{
				"box" : 				{
					"args" : [ "midi_track_14", 14 ],
					"bgmode" : 0,
					"border" : 1,
					"clickthrough" : 0,
					"enablehscroll" : 0,
					"enablevscroll" : 0,
					"id" : "obj-14",
					"lockeddragscroll" : 0,
					"lockedsize" : 0,
					"maxclass" : "bpatcher",
					"name" : "djazz.view.track.maxpat",
					"numinlets" : 1,
					"numoutlets" : 1,
					"offset" : [ 0.0, 0.0 ],
					"outlettype" : [ "" ],
					"patching_rect" : [ 243.000008821487427, 740.214286838259227, 1375.23809027671814, 23.749998688697815 ],
					"presentation" : 1,
					"presentation_rect" : [ 15.5, 583.0, 1460.0, 22.0 ],
					"varname" : "track_14",
					"viewvisibility" : 1
				}

			}
, 			{
				"box" : 				{
					"args" : [ "midi_track_13", 13 ],
					"bgmode" : 0,
					"border" : 1,
					"clickthrough" : 0,
					"enablehscroll" : 0,
					"enablevscroll" : 0,
					"id" : "obj-13",
					"lockeddragscroll" : 0,
					"lockedsize" : 0,
					"maxclass" : "bpatcher",
					"name" : "djazz.view.track.maxpat",
					"numinlets" : 1,
					"numoutlets" : 1,
					"offset" : [ 0.0, 0.0 ],
					"outlettype" : [ "" ],
					"patching_rect" : [ 243.000008821487427, 710.428573676518226, 1375.23809027671814, 23.749998688697815 ],
					"presentation" : 1,
					"presentation_rect" : [ 15.5, 607.0, 1460.0, 22.0 ],
					"varname" : "track_13",
					"viewvisibility" : 1
				}

			}
, 			{
				"box" : 				{
					"args" : [ "midi_track_12", 12 ],
					"bgmode" : 0,
					"border" : 1,
					"clickthrough" : 0,
					"enablehscroll" : 0,
					"enablevscroll" : 0,
					"id" : "obj-12",
					"lockeddragscroll" : 0,
					"lockedsize" : 0,
					"maxclass" : "bpatcher",
					"name" : "djazz.view.track.maxpat",
					"numinlets" : 1,
					"numoutlets" : 1,
					"offset" : [ 0.0, 0.0 ],
					"outlettype" : [ "" ],
					"patching_rect" : [ 243.000008821487427, 681.392859203475041, 1375.23809027671814, 23.0 ],
					"presentation" : 1,
					"presentation_rect" : [ 15.5, 631.0, 1460.0, 22.0 ],
					"varname" : "track_12",
					"viewvisibility" : 1
				}

			}
, 			{
				"box" : 				{
					"args" : [ "midi_track_11", 11 ],
					"bgmode" : 0,
					"border" : 1,
					"clickthrough" : 0,
					"enablehscroll" : 0,
					"enablevscroll" : 0,
					"id" : "obj-11",
					"lockeddragscroll" : 0,
					"lockedsize" : 0,
					"maxclass" : "bpatcher",
					"name" : "djazz.view.track.maxpat",
					"numinlets" : 1,
					"numoutlets" : 1,
					"offset" : [ 0.0, 0.0 ],
					"outlettype" : [ "" ],
					"patching_rect" : [ 243.000008821487427, 652.357144730431855, 1375.23809027671814, 23.0 ],
					"presentation" : 1,
					"presentation_rect" : [ 15.5, 655.0, 1460.0, 22.0 ],
					"varname" : "track_11",
					"viewvisibility" : 1
				}

			}
, 			{
				"box" : 				{
					"args" : [ "midi_track_10", 10 ],
					"bgmode" : 0,
					"border" : 1,
					"clickthrough" : 0,
					"enablehscroll" : 0,
					"enablevscroll" : 0,
					"id" : "obj-2",
					"lockeddragscroll" : 0,
					"lockedsize" : 0,
					"maxclass" : "bpatcher",
					"name" : "djazz.view.track.maxpat",
					"numinlets" : 1,
					"numoutlets" : 1,
					"offset" : [ 0.0, 0.0 ],
					"outlettype" : [ "" ],
					"patching_rect" : [ 243.000008821487427, 623.32143025738867, 1375.23809027671814, 23.0 ],
					"presentation" : 1,
					"presentation_rect" : [ 15.5, 679.0, 1460.0, 22.0 ],
					"varname" : "track_10",
					"viewvisibility" : 1
				}

			}
, 			{
				"box" : 				{
					"args" : [ "midi_track_9", 9 ],
					"bgmode" : 0,
					"border" : 1,
					"clickthrough" : 0,
					"enablehscroll" : 0,
					"enablevscroll" : 0,
					"id" : "obj-9",
					"lockeddragscroll" : 0,
					"lockedsize" : 0,
					"maxclass" : "bpatcher",
					"name" : "djazz.view.track.maxpat",
					"numinlets" : 1,
					"numoutlets" : 1,
					"offset" : [ 0.0, 0.0 ],
					"outlettype" : [ "" ],
					"patching_rect" : [ 243.000008821487427, 594.285715784345484, 1375.23809027671814, 23.0 ],
					"presentation" : 1,
					"presentation_rect" : [ 15.5, 703.0, 1460.0, 22.0 ],
					"varname" : "track_9",
					"viewvisibility" : 1
				}

			}
, 			{
				"box" : 				{
					"args" : [ "midi_track_8", 8 ],
					"bgmode" : 0,
					"border" : 1,
					"clickthrough" : 0,
					"enablehscroll" : 0,
					"enablevscroll" : 0,
					"id" : "obj-8",
					"lockeddragscroll" : 0,
					"lockedsize" : 0,
					"maxclass" : "bpatcher",
					"name" : "djazz.view.track.maxpat",
					"numinlets" : 1,
					"numoutlets" : 1,
					"offset" : [ 0.0, 0.0 ],
					"outlettype" : [ "" ],
					"patching_rect" : [ 243.000008821487427, 565.250001311302299, 1375.23809027671814, 23.0 ],
					"presentation" : 1,
					"presentation_rect" : [ 15.5, 727.0, 1460.0, 22.0 ],
					"varname" : "track_8",
					"viewvisibility" : 1
				}

			}
, 			{
				"box" : 				{
					"args" : [ "midi_track_7", 7 ],
					"bgmode" : 0,
					"border" : 1,
					"clickthrough" : 0,
					"enablehscroll" : 0,
					"enablevscroll" : 0,
					"id" : "obj-7",
					"lockeddragscroll" : 0,
					"lockedsize" : 0,
					"maxclass" : "bpatcher",
					"name" : "djazz.view.track.maxpat",
					"numinlets" : 1,
					"numoutlets" : 1,
					"offset" : [ 0.0, 0.0 ],
					"outlettype" : [ "" ],
					"patching_rect" : [ 243.000008821487427, 536.214286838259113, 1375.23809027671814, 23.0 ],
					"presentation" : 1,
					"presentation_rect" : [ 15.5, 770.0, 1460.0, 22.0 ],
					"varname" : "track_7",
					"viewvisibility" : 1
				}

			}
, 			{
				"box" : 				{
					"args" : [ "midi_track_6", 6 ],
					"bgmode" : 0,
					"border" : 1,
					"clickthrough" : 0,
					"enablehscroll" : 0,
					"enablevscroll" : 0,
					"id" : "obj-3",
					"lockeddragscroll" : 0,
					"lockedsize" : 0,
					"maxclass" : "bpatcher",
					"name" : "djazz.view.track.maxpat",
					"numinlets" : 1,
					"numoutlets" : 1,
					"offset" : [ 0.0, 0.0 ],
					"outlettype" : [ "" ],
					"patching_rect" : [ 243.000008821487427, 507.178572365215928, 1375.23809027671814, 23.0 ],
					"presentation" : 1,
					"presentation_rect" : [ 15.5, 794.0, 1460.0, 22.0 ],
					"varname" : "track_6",
					"viewvisibility" : 1
				}

			}
, 			{
				"box" : 				{
					"args" : [ "midi_track_5", 5 ],
					"bgmode" : 0,
					"border" : 1,
					"clickthrough" : 0,
					"enablehscroll" : 0,
					"enablevscroll" : 0,
					"id" : "obj-5",
					"lockeddragscroll" : 0,
					"lockedsize" : 0,
					"maxclass" : "bpatcher",
					"name" : "djazz.view.track.maxpat",
					"numinlets" : 1,
					"numoutlets" : 1,
					"offset" : [ 0.0, 0.0 ],
					"outlettype" : [ "" ],
					"patching_rect" : [ 243.000008821487427, 478.142857892172742, 1375.23809027671814, 23.0 ],
					"presentation" : 1,
					"presentation_rect" : [ 15.5, 818.0, 1460.0, 22.0 ],
					"varname" : "track_5",
					"viewvisibility" : 1
				}

			}
, 			{
				"box" : 				{
					"args" : [ "midi_track_4", 4 ],
					"bgmode" : 0,
					"border" : 1,
					"clickthrough" : 0,
					"enablehscroll" : 0,
					"enablevscroll" : 0,
					"id" : "obj-4",
					"lockeddragscroll" : 0,
					"lockedsize" : 0,
					"maxclass" : "bpatcher",
					"name" : "djazz.view.track.maxpat",
					"numinlets" : 1,
					"numoutlets" : 1,
					"offset" : [ 0.0, 0.0 ],
					"outlettype" : [ "" ],
					"patching_rect" : [ 243.000008821487427, 449.107143419129557, 1375.23809027671814, 23.0 ],
					"presentation" : 1,
					"presentation_rect" : [ 15.5, 842.0, 1460.0, 22.0 ],
					"varname" : "track_4",
					"viewvisibility" : 1
				}

			}
, 			{
				"box" : 				{
					"args" : [ "midi_track_3", 3 ],
					"bgmode" : 0,
					"border" : 1,
					"clickthrough" : 0,
					"enablehscroll" : 0,
					"enablevscroll" : 0,
					"id" : "obj-6",
					"lockeddragscroll" : 0,
					"lockedsize" : 0,
					"maxclass" : "bpatcher",
					"name" : "djazz.view.track.maxpat",
					"numinlets" : 1,
					"numoutlets" : 1,
					"offset" : [ 0.0, 0.0 ],
					"outlettype" : [ "" ],
					"patching_rect" : [ 243.000008821487427, 420.071428946086371, 1375.23809027671814, 23.0 ],
					"presentation" : 1,
					"presentation_rect" : [ 15.5, 866.0, 1460.0, 22.0 ],
					"varname" : "track_3",
					"viewvisibility" : 1
				}

			}
, 			{
				"box" : 				{
					"args" : [ "midi_track_2", 2 ],
					"bgmode" : 0,
					"border" : 1,
					"clickthrough" : 0,
					"enablehscroll" : 0,
					"enablevscroll" : 0,
					"id" : "obj-16",
					"lockeddragscroll" : 0,
					"lockedsize" : 0,
					"maxclass" : "bpatcher",
					"name" : "djazz.view.track.maxpat",
					"numinlets" : 1,
					"numoutlets" : 1,
					"offset" : [ 0.0, 0.0 ],
					"outlettype" : [ "" ],
					"patching_rect" : [ 243.000008821487427, 391.035714473043186, 1375.23809027671814, 23.0 ],
					"presentation" : 1,
					"presentation_rect" : [ 17.0, 195.0, 1460.0, 22.0 ],
					"varname" : "track_2",
					"viewvisibility" : 1
				}

			}
, 			{
				"box" : 				{
					"args" : [ "midi_track_1", 1 ],
					"bgmode" : 0,
					"border" : 1,
					"clickthrough" : 0,
					"enablehscroll" : 0,
					"enablevscroll" : 0,
					"id" : "obj-17",
					"lockeddragscroll" : 0,
					"lockedsize" : 0,
					"maxclass" : "bpatcher",
					"name" : "djazz.view.track.maxpat",
					"numinlets" : 1,
					"numoutlets" : 1,
					"offset" : [ 0.0, 0.0 ],
					"outlettype" : [ "" ],
					"patching_rect" : [ 243.000008821487427, 359.0, 1375.23809027671814, 26.0 ],
					"presentation" : 1,
					"presentation_rect" : [ 17.0, 169.0, 1460.0, 22.0 ],
					"varname" : "track_1",
					"viewvisibility" : 1
				}

			}
, 			{
				"box" : 				{
					"angle" : 270.0,
					"bgcolor" : [ 0.56078431372549, 0.56078431372549, 0.56078431372549, 1.0 ],
					"border" : 4,
					"bordercolor" : [ 0.0, 0.0, 0.0, 1.0 ],
					"id" : "obj-30",
					"maxclass" : "panel",
					"mode" : 0,
					"numinlets" : 1,
					"numoutlets" : 0,
					"patching_rect" : [ 989.0, 8.0, 211.0, 46.0 ],
					"presentation" : 1,
					"presentation_rect" : [ 7.0, 8.0, 1478.0, 218.0 ],
					"proportion" : 0.5,
					"rounded" : 0
				}

			}
, 			{
				"box" : 				{
					"angle" : 270.0,
					"bgcolor" : [ 0.56078431372549, 0.56078431372549, 0.56078431372549, 1.0 ],
					"border" : 4,
					"bordercolor" : [ 0.0, 0.0, 0.0, 1.0 ],
					"id" : "obj-34",
					"maxclass" : "panel",
					"mode" : 0,
					"numinlets" : 1,
					"numoutlets" : 0,
					"patching_rect" : [ 128.0, 123.0, 236.0, 58.0 ],
					"presentation" : 1,
					"presentation_rect" : [ 6.5, 234.0, 1479.0, 103.0 ],
					"proportion" : 0.5,
					"rounded" : 0
				}

			}
, 			{
				"box" : 				{
					"angle" : 270.0,
					"bgcolor" : [ 0.56078431372549, 0.56078431372549, 0.56078431372549, 1.0 ],
					"border" : 4,
					"bordercolor" : [ 0.0, 0.0, 0.0, 1.0 ],
					"id" : "obj-36",
					"maxclass" : "panel",
					"mode" : 0,
					"numinlets" : 1,
					"numoutlets" : 0,
					"patching_rect" : [ 232.0, 300.0, 245.0, 40.0 ],
					"presentation" : 1,
					"presentation_rect" : [ 6.5, 521.0, 1479.0, 376.0 ],
					"proportion" : 0.5,
					"rounded" : 0
				}

			}
, 			{
				"box" : 				{
					"angle" : 270.0,
					"bgcolor" : [ 0.56078431372549, 0.56078431372549, 0.56078431372549, 1.0 ],
					"border" : 4,
					"bordercolor" : [ 0.0, 0.0, 0.0, 1.0 ],
					"id" : "obj-54",
					"maxclass" : "panel",
					"mode" : 0,
					"numinlets" : 1,
					"numoutlets" : 0,
					"patching_rect" : [ 249.0, 808.0, 246.0, 56.0 ],
					"presentation" : 1,
					"presentation_rect" : [ 6.5, 346.0, 1479.0, 164.0 ],
					"proportion" : 0.5,
					"rounded" : 0
				}

			}
 ],
		"lines" : [ 			{
				"patchline" : 				{
					"destination" : [ "obj-26", 0 ],
					"source" : [ "obj-11", 0 ]
				}

			}
, 			{
				"patchline" : 				{
					"destination" : [ "obj-26", 0 ],
					"source" : [ "obj-12", 0 ]
				}

			}
, 			{
				"patchline" : 				{
					"destination" : [ "obj-26", 0 ],
					"source" : [ "obj-13", 0 ]
				}

			}
, 			{
				"patchline" : 				{
					"destination" : [ "obj-26", 0 ],
					"source" : [ "obj-14", 0 ]
				}

			}
, 			{
				"patchline" : 				{
					"destination" : [ "obj-26", 0 ],
					"source" : [ "obj-15", 0 ]
				}

			}
, 			{
				"patchline" : 				{
					"destination" : [ "obj-26", 0 ],
					"source" : [ "obj-16", 0 ]
				}

			}
, 			{
				"patchline" : 				{
					"destination" : [ "obj-26", 0 ],
					"source" : [ "obj-17", 0 ]
				}

			}
, 			{
				"patchline" : 				{
					"destination" : [ "obj-26", 0 ],
					"source" : [ "obj-18", 0 ]
				}

			}
, 			{
				"patchline" : 				{
					"destination" : [ "obj-26", 0 ],
					"source" : [ "obj-19", 0 ]
				}

			}
, 			{
				"patchline" : 				{
					"destination" : [ "obj-26", 0 ],
					"source" : [ "obj-2", 0 ]
				}

			}
, 			{
				"patchline" : 				{
					"destination" : [ "obj-18", 0 ],
					"order" : 1,
					"source" : [ "obj-20", 0 ]
				}

			}
, 			{
				"patchline" : 				{
					"destination" : [ "obj-19", 0 ],
					"order" : 0,
					"source" : [ "obj-20", 0 ]
				}

			}
, 			{
				"patchline" : 				{
					"destination" : [ "obj-22", 0 ],
					"source" : [ "obj-21", 0 ]
				}

			}
, 			{
				"patchline" : 				{
					"destination" : [ "obj-27", 0 ],
					"source" : [ "obj-24", 0 ]
				}

			}
, 			{
				"patchline" : 				{
					"destination" : [ "obj-25", 0 ],
					"source" : [ "obj-26", 0 ]
				}

			}
, 			{
				"patchline" : 				{
					"destination" : [ "obj-19", 1 ],
					"source" : [ "obj-28", 0 ]
				}

			}
, 			{
				"patchline" : 				{
					"destination" : [ "obj-19", 1 ],
					"source" : [ "obj-29", 0 ]
				}

			}
, 			{
				"patchline" : 				{
					"destination" : [ "obj-26", 0 ],
					"source" : [ "obj-3", 0 ]
				}

			}
, 			{
				"patchline" : 				{
					"destination" : [ "obj-19", 1 ],
					"source" : [ "obj-32", 0 ]
				}

			}
, 			{
				"patchline" : 				{
					"destination" : [ "obj-18", 1 ],
					"source" : [ "obj-37", 0 ]
				}

			}
, 			{
				"patchline" : 				{
					"destination" : [ "obj-26", 0 ],
					"source" : [ "obj-4", 0 ]
				}

			}
, 			{
				"patchline" : 				{
					"destination" : [ "obj-26", 0 ],
					"source" : [ "obj-5", 0 ]
				}

			}
, 			{
				"patchline" : 				{
					"destination" : [ "obj-26", 0 ],
					"source" : [ "obj-6", 0 ]
				}

			}
, 			{
				"patchline" : 				{
					"destination" : [ "obj-31", 0 ],
					"source" : [ "obj-62", 0 ]
				}

			}
, 			{
				"patchline" : 				{
					"destination" : [ "obj-62", 0 ],
					"source" : [ "obj-63", 0 ]
				}

			}
, 			{
				"patchline" : 				{
					"destination" : [ "obj-26", 0 ],
					"source" : [ "obj-7", 0 ]
				}

			}
, 			{
				"patchline" : 				{
					"destination" : [ "obj-26", 0 ],
					"source" : [ "obj-8", 0 ]
				}

			}
, 			{
				"patchline" : 				{
					"destination" : [ "obj-26", 0 ],
					"source" : [ "obj-9", 0 ]
				}

			}
 ],
		"bgcolor" : [ 0.407843137254902, 0.407843137254902, 0.407843137254902, 1.0 ]
	}

}
