{
	"patcher" : 	{
		"fileversion" : 1,
		"appversion" : 		{
			"major" : 8,
			"minor" : 5,
			"revision" : 5,
			"architecture" : "x64",
			"modernui" : 1
		}
,
		"classnamespace" : "box",
		"rect" : [ 524.0, 195.0, 1153.0, 753.0 ],
		"bglocked" : 0,
		"openinpresentation" : 0,
		"default_fontsize" : 12.0,
		"default_fontface" : 0,
		"default_fontname" : "Arial",
		"gridonopen" : 1,
		"gridsize" : [ 15.0, 15.0 ],
		"gridsnaponopen" : 1,
		"objectsnaponopen" : 1,
		"statusbarvisible" : 2,
		"toolbarvisible" : 1,
		"lefttoolbarpinned" : 0,
		"toptoolbarpinned" : 0,
		"righttoolbarpinned" : 0,
		"bottomtoolbarpinned" : 0,
		"toolbars_unpinned_last_save" : 0,
		"tallnewobj" : 0,
		"boxanimatetime" : 200,
		"enablehscroll" : 1,
		"enablevscroll" : 1,
		"devicewidth" : 0.0,
		"description" : "",
		"digest" : "",
		"tags" : "",
		"style" : "",
		"subpatcher_template" : "",
		"assistshowspatchername" : 0,
		"boxes" : [ 			{
				"box" : 				{
					"comment" : "",
					"id" : "obj-7",
					"index" : 0,
					"maxclass" : "outlet",
					"numinlets" : 1,
					"numoutlets" : 0,
					"patching_rect" : [ 31.5, 121.5, 30.0, 30.0 ]
				}

			}
, 			{
				"box" : 				{
					"bgcolor" : [ 255.0, 0.0, 0.0, 1.0 ],
					"bgoncolor" : [ 255.0, 0.0, 0.0, 1.0 ],
					"id" : "obj-810",
					"maxclass" : "textbutton",
					"numinlets" : 1,
					"numoutlets" : 3,
					"outlettype" : [ "", "", "int" ],
					"parameter_enable" : 0,
					"patching_rect" : [ 19.0, 11.0, 44.0, 44.0 ],
					"presentation" : 1,
					"presentation_rect" : [ -1.0, 0.0, 44.0, 44.0 ],
					"text" : "red",
					"textcolor" : [ 255.0, 0.0, 0.0, 1.0 ],
					"texton" : "red",
					"textoncolor" : [ 255.0, 0.0, 0.0, 1.0 ]
				}

			}
, 			{
				"box" : 				{
					"bgcolor" : [ 1.0, 0.647058823529412, 0.0, 1.0 ],
					"bgoncolor" : [ 255.0, 64.0, 0.0, 1.0 ],
					"id" : "obj-812",
					"maxclass" : "textbutton",
					"numinlets" : 1,
					"numoutlets" : 3,
					"outlettype" : [ "", "", "int" ],
					"parameter_enable" : 0,
					"patching_rect" : [ 63.0, 11.0, 44.0, 44.0 ],
					"presentation" : 1,
					"presentation_rect" : [ 43.0, 0.0, 44.0, 44.0 ],
					"text" : "orange",
					"textcolor" : [ 255.0, 64.0, 0.0, 1.0 ],
					"texton" : "orange",
					"textoncolor" : [ 1.0, 0.647058823529412, 0.0, 1.0 ]
				}

			}
, 			{
				"box" : 				{
					"bgcolor" : [ 255.0, 255.0, 0.0, 1.0 ],
					"bgoncolor" : [ 255.0, 255.0, 0.0, 1.0 ],
					"id" : "obj-814",
					"maxclass" : "textbutton",
					"numinlets" : 1,
					"numoutlets" : 3,
					"outlettype" : [ "", "", "int" ],
					"parameter_enable" : 0,
					"patching_rect" : [ 107.0, 11.0, 44.0, 44.0 ],
					"presentation" : 1,
					"presentation_rect" : [ 87.0, 0.0, 44.0, 44.0 ],
					"text" : "yellow",
					"textcolor" : [ 255.0, 255.0, 0.0, 1.0 ],
					"texton" : "yellow",
					"textoncolor" : [ 255.0, 255.0, 0.0, 1.0 ]
				}

			}
, 			{
				"box" : 				{
					"bgcolor" : [ 0.0, 255.0, 0.0, 1.0 ],
					"bgoncolor" : [ 0.0, 255.0, 0.0, 1.0 ],
					"id" : "obj-816",
					"maxclass" : "textbutton",
					"numinlets" : 1,
					"numoutlets" : 3,
					"outlettype" : [ "", "", "int" ],
					"parameter_enable" : 0,
					"patching_rect" : [ 151.0, 11.0, 44.0, 44.0 ],
					"presentation" : 1,
					"presentation_rect" : [ 131.0, 0.0, 44.0, 44.0 ],
					"text" : "green",
					"textcolor" : [ 0.0, 255.0, 0.0, 1.0 ],
					"texton" : "green",
					"textoncolor" : [ 0.0, 255.0, 0.0, 1.0 ]
				}

			}
 ],
		"lines" : [ 			{
				"patchline" : 				{
					"destination" : [ "obj-7", 0 ],
					"source" : [ "obj-810", 1 ]
				}

			}
, 			{
				"patchline" : 				{
					"destination" : [ "obj-7", 0 ],
					"source" : [ "obj-812", 1 ]
				}

			}
, 			{
				"patchline" : 				{
					"destination" : [ "obj-7", 0 ],
					"source" : [ "obj-814", 1 ]
				}

			}
, 			{
				"patchline" : 				{
					"destination" : [ "obj-7", 0 ],
					"source" : [ "obj-816", 1 ]
				}

			}
 ],
		"dependency_cache" : [  ],
		"autosave" : 0
	}

}
