{
	"patcher" : 	{
		"fileversion" : 1,
		"appversion" : 		{
			"major" : 8,
			"minor" : 5,
			"revision" : 4,
			"architecture" : "x64",
			"modernui" : 1
		}
,
		"classnamespace" : "box",
		"rect" : [ 498.0, 105.0, 454.0, 668.0 ],
		"bglocked" : 0,
		"openinpresentation" : 0,
		"default_fontsize" : 12.0,
		"default_fontface" : 0,
		"default_fontname" : "Arial",
		"gridonopen" : 1,
		"gridsize" : [ 15.0, 15.0 ],
		"gridsnaponopen" : 1,
		"objectsnaponopen" : 1,
		"statusbarvisible" : 2,
		"toolbarvisible" : 1,
		"lefttoolbarpinned" : 0,
		"toptoolbarpinned" : 0,
		"righttoolbarpinned" : 0,
		"bottomtoolbarpinned" : 0,
		"toolbars_unpinned_last_save" : 0,
		"tallnewobj" : 0,
		"boxanimatetime" : 200,
		"enablehscroll" : 1,
		"enablevscroll" : 1,
		"devicewidth" : 0.0,
		"description" : "",
		"digest" : "",
		"tags" : "",
		"style" : "",
		"subpatcher_template" : "",
		"assistshowspatchername" : 0,
		"boxes" : [ 			{
				"box" : 				{
					"id" : "obj-15",
					"maxclass" : "message",
					"numinlets" : 2,
					"numoutlets" : 1,
					"outlettype" : [ "" ],
					"patching_rect" : [ 34.0, 83.0, 35.0, 22.0 ],
					"text" : "clear"
				}

			}
, 			{
				"box" : 				{
					"id" : "obj-13",
					"maxclass" : "message",
					"numinlets" : 2,
					"numoutlets" : 1,
					"outlettype" : [ "" ],
					"patching_rect" : [ 34.0, 42.0, 110.0, 22.0 ],
					"text" : "remove_last_effect"
				}

			}
, 			{
				"box" : 				{
					"id" : "obj-7",
					"maxclass" : "message",
					"numinlets" : 2,
					"numoutlets" : 1,
					"outlettype" : [ "" ],
					"patching_rect" : [ 34.0, 13.0, 64.0, 22.0 ],
					"text" : "add_effect"
				}

			}
, 			{
				"box" : 				{
					"id" : "obj-3",
					"maxclass" : "newobj",
					"numinlets" : 1,
					"numoutlets" : 2,
					"outlettype" : [ "", "" ],
					"patching_rect" : [ 139.0, 357.0, 227.0, 22.0 ],
					"saved_object_attributes" : 					{
						"filename" : "djazz_midi_out_components_control.js",
						"parameter_enable" : 0
					}
,
					"text" : "js djazz_midi_out_components_control.js"
				}

			}
, 			{
				"box" : 				{
					"id" : "obj-8",
					"maxclass" : "message",
					"numinlets" : 2,
					"numoutlets" : 1,
					"outlettype" : [ "" ],
					"patching_rect" : [ 99.0, 471.0, 79.0, 22.0 ],
					"text" : "2 61 127 500"
				}

			}
, 			{
				"box" : 				{
					"id" : "obj-6",
					"maxclass" : "message",
					"numinlets" : 2,
					"numoutlets" : 1,
					"outlettype" : [ "" ],
					"patching_rect" : [ 99.0, 572.0, 89.0, 22.0 ],
					"text" : "4 0 0 0"
				}

			}
, 			{
				"box" : 				{
					"id" : "obj-4",
					"maxclass" : "message",
					"numinlets" : 2,
					"numoutlets" : 1,
					"outlettype" : [ "" ],
					"patching_rect" : [ 99.0, 435.0, 85.0, 22.0 ],
					"text" : "1 60 127 1000"
				}

			}
, 			{
				"box" : 				{
					"args" : [ "track_1" ],
					"bgmode" : 0,
					"border" : 0,
					"clickthrough" : 0,
					"enablehscroll" : 0,
					"enablevscroll" : 0,
					"id" : "obj-2",
					"lockeddragscroll" : 0,
					"lockedsize" : 0,
					"maxclass" : "bpatcher",
					"name" : "djazz_midi_out_track_view.maxpat",
					"numinlets" : 2,
					"numoutlets" : 3,
					"offset" : [ 0.0, 0.0 ],
					"outlettype" : [ "int", "", "" ],
					"patching_rect" : [ 169.0, 75.0, 131.0, 259.0 ],
					"varname" : "djazz_midi_out_track_view",
					"viewvisibility" : 1
				}

			}
, 			{
				"box" : 				{
					"id" : "obj-1",
					"maxclass" : "newobj",
					"numinlets" : 3,
					"numoutlets" : 1,
					"outlettype" : [ "" ],
					"patching_rect" : [ 169.0, 529.0, 121.0, 22.0 ],
					"text" : "djazz_midi_out_track",
					"varname" : "djazz_midi_out_track"
				}

			}
 ],
		"lines" : [ 			{
				"patchline" : 				{
					"destination" : [ "obj-6", 1 ],
					"source" : [ "obj-1", 0 ]
				}

			}
, 			{
				"patchline" : 				{
					"destination" : [ "obj-2", 1 ],
					"source" : [ "obj-13", 0 ]
				}

			}
, 			{
				"patchline" : 				{
					"destination" : [ "obj-2", 1 ],
					"source" : [ "obj-15", 0 ]
				}

			}
, 			{
				"patchline" : 				{
					"destination" : [ "obj-1", 2 ],
					"source" : [ "obj-2", 2 ]
				}

			}
, 			{
				"patchline" : 				{
					"destination" : [ "obj-2", 1 ],
					"midpoints" : [ 356.5, 461.0, 410.5, 461.0, 410.5, 46.0, 290.5, 46.0 ],
					"source" : [ "obj-3", 1 ]
				}

			}
, 			{
				"patchline" : 				{
					"destination" : [ "obj-1", 0 ],
					"source" : [ "obj-4", 0 ]
				}

			}
, 			{
				"patchline" : 				{
					"destination" : [ "obj-2", 1 ],
					"source" : [ "obj-7", 0 ]
				}

			}
, 			{
				"patchline" : 				{
					"destination" : [ "obj-1", 0 ],
					"source" : [ "obj-8", 0 ]
				}

			}
 ],
		"dependency_cache" : [ 			{
				"name" : "db_dictionary_array_utils.js",
				"bootpath" : "~/Documents/Max 8/Projects/djazz_db/code",
				"patcherrelativepath" : "../code",
				"type" : "TEXT",
				"implicit" : 1
			}
, 			{
				"name" : "djazz_components_midi_out_effect_list.js",
				"bootpath" : "~/Documents/Max 8/Projects/djazz_db/code",
				"patcherrelativepath" : "../code",
				"type" : "TEXT",
				"implicit" : 1
			}
, 			{
				"name" : "djazz_components_midi_out_effect_list_view.js",
				"bootpath" : "~/Documents/Max 8/Projects/djazz_db/code",
				"patcherrelativepath" : "../code",
				"type" : "TEXT",
				"implicit" : 1
			}
, 			{
				"name" : "djazz_dispatch.js",
				"bootpath" : "~/Documents/Max 8/Projects/djazz_db/code",
				"patcherrelativepath" : "../code",
				"type" : "TEXT",
				"implicit" : 1
			}
, 			{
				"name" : "djazz_midi_out_components_control.js",
				"bootpath" : "~/Documents/Max 8/Projects/djazz_db/code",
				"patcherrelativepath" : "../code",
				"type" : "TEXT",
				"implicit" : 1
			}
, 			{
				"name" : "djazz_midi_out_effect_list.maxpat",
				"bootpath" : "~/Documents/Max 8/Projects/djazz_db/patchers",
				"patcherrelativepath" : ".",
				"type" : "JSON",
				"implicit" : 1
			}
, 			{
				"name" : "djazz_midi_out_effect_list_view.maxpat",
				"bootpath" : "~/Documents/Max 8/Projects/djazz_db/patchers",
				"patcherrelativepath" : ".",
				"type" : "JSON",
				"implicit" : 1
			}
, 			{
				"name" : "djazz_midi_out_track.maxpat",
				"bootpath" : "~/Documents/Max 8/Projects/djazz_db/patchers",
				"patcherrelativepath" : ".",
				"type" : "JSON",
				"implicit" : 1
			}
, 			{
				"name" : "djazz_midi_out_track_view.maxpat",
				"bootpath" : "~/Documents/Max 8/Projects/djazz_db/patchers",
				"patcherrelativepath" : ".",
				"type" : "JSON",
				"implicit" : 1
			}
 ],
		"autosave" : 0
	}

}
