{
	"patcher" : 	{
		"fileversion" : 1,
		"appversion" : 		{
			"major" : 8,
			"minor" : 5,
			"revision" : 4,
			"architecture" : "x64",
			"modernui" : 1
		}
,
		"classnamespace" : "box",
		"rect" : [ 77.0, 116.0, 1178.0, 816.0 ],
		"bglocked" : 0,
		"openinpresentation" : 0,
		"default_fontsize" : 12.0,
		"default_fontface" : 0,
		"default_fontname" : "Arial",
		"gridonopen" : 1,
		"gridsize" : [ 15.0, 15.0 ],
		"gridsnaponopen" : 1,
		"objectsnaponopen" : 1,
		"statusbarvisible" : 2,
		"toolbarvisible" : 1,
		"lefttoolbarpinned" : 0,
		"toptoolbarpinned" : 0,
		"righttoolbarpinned" : 0,
		"bottomtoolbarpinned" : 0,
		"toolbars_unpinned_last_save" : 0,
		"tallnewobj" : 0,
		"boxanimatetime" : 200,
		"enablehscroll" : 1,
		"enablevscroll" : 1,
		"devicewidth" : 0.0,
		"description" : "",
		"digest" : "",
		"tags" : "",
		"style" : "",
		"subpatcher_template" : "",
		"assistshowspatchername" : 0,
		"boxes" : [ 			{
				"box" : 				{
					"id" : "obj-45",
					"maxclass" : "message",
					"numinlets" : 2,
					"numoutlets" : 1,
					"outlettype" : [ "" ],
					"patching_rect" : [ 45.0, 139.0, 99.0, 22.0 ],
					"text" : "max_continuity 2"
				}

			}
, 			{
				"box" : 				{
					"id" : "obj-41",
					"maxclass" : "number",
					"numinlets" : 1,
					"numoutlets" : 2,
					"outlettype" : [ "", "bang" ],
					"parameter_enable" : 0,
					"patching_rect" : [ 40.0, 262.0, 50.0, 22.0 ]
				}

			}
, 			{
				"box" : 				{
					"id" : "obj-39",
					"maxclass" : "message",
					"numinlets" : 2,
					"numoutlets" : 1,
					"outlettype" : [ "" ],
					"patching_rect" : [ 34.0, 445.0, 50.0, 22.0 ],
					"text" : "68"
				}

			}
, 			{
				"box" : 				{
					"id" : "obj-35",
					"maxclass" : "message",
					"numinlets" : 2,
					"numoutlets" : 1,
					"outlettype" : [ "" ],
					"patching_rect" : [ 116.5, 264.0, 137.0, 22.0 ],
					"text" : "factor_oracle ORACLE1"
				}

			}
, 			{
				"box" : 				{
					"id" : "obj-28",
					"maxclass" : "message",
					"numinlets" : 2,
					"numoutlets" : 1,
					"outlettype" : [ "" ],
					"patching_rect" : [ 120.0, 293.0, 172.0, 22.0 ],
					"text" : "states BEATS_WITH_LABELS"
				}

			}
, 			{
				"box" : 				{
					"id" : "obj-25",
					"maxclass" : "newobj",
					"numinlets" : 2,
					"numoutlets" : 2,
					"outlettype" : [ "", "" ],
					"patching_rect" : [ 707.0, 511.0, 36.0, 22.0 ],
					"text" : "route"
				}

			}
, 			{
				"box" : 				{
					"id" : "obj-24",
					"maxclass" : "newobj",
					"numinlets" : 1,
					"numoutlets" : 2,
					"outlettype" : [ "", "" ],
					"patching_rect" : [ 638.5, 417.0, 87.5, 22.0 ],
					"text" : "t s s"
				}

			}
, 			{
				"box" : 				{
					"id" : "obj-23",
					"maxclass" : "newobj",
					"numinlets" : 2,
					"numoutlets" : 4,
					"outlettype" : [ "dictionary", "", "", "" ],
					"patching_rect" : [ 642.75, 464.0, 50.5, 22.0 ],
					"saved_object_attributes" : 					{
						"embed" : 0,
						"parameter_enable" : 0,
						"parameter_mappable" : 0
					}
,
					"text" : "dict"
				}

			}
, 			{
				"box" : 				{
					"id" : "obj-20",
					"maxclass" : "newobj",
					"numinlets" : 2,
					"numoutlets" : 2,
					"outlettype" : [ "", "" ],
					"patching_rect" : [ 627.0, 373.0, 99.0, 22.0 ],
					"text" : "combine s ::label"
				}

			}
, 			{
				"box" : 				{
					"id" : "obj-16",
					"maxclass" : "newobj",
					"numinlets" : 2,
					"numoutlets" : 2,
					"outlettype" : [ "", "" ],
					"patching_rect" : [ 576.5, 576.0, 39.0, 22.0 ],
					"text" : "zl.join"
				}

			}
, 			{
				"box" : 				{
					"id" : "obj-15",
					"maxclass" : "newobj",
					"numinlets" : 1,
					"numoutlets" : 1,
					"outlettype" : [ "" ],
					"patching_rect" : [ 605.5, 633.0, 109.0, 22.0 ],
					"text" : "prepend add_state"
				}

			}
, 			{
				"box" : 				{
					"id" : "obj-14",
					"maxclass" : "newobj",
					"numinlets" : 1,
					"numoutlets" : 2,
					"outlettype" : [ "int", "int" ],
					"patching_rect" : [ 601.0, 293.0, 29.5, 22.0 ],
					"text" : "t i i"
				}

			}
, 			{
				"box" : 				{
					"id" : "obj-13",
					"maxclass" : "message",
					"numinlets" : 2,
					"numoutlets" : 1,
					"outlettype" : [ "" ],
					"patching_rect" : [ 164.0, 67.0, 42.0, 22.0 ],
					"text" : "import"
				}

			}
, 			{
				"box" : 				{
					"id" : "obj-4",
					"linecount" : 2,
					"maxclass" : "message",
					"numinlets" : 2,
					"numoutlets" : 1,
					"outlettype" : [ "" ],
					"patching_rect" : [ 1676.666663646697998, 88.0, 274.0, 35.0 ],
					"presentation_linecount" : 2,
					"text" : "comparison fo.compare.equal_chords_in_3_semitone_range"
				}

			}
, 			{
				"box" : 				{
					"id" : "obj-7",
					"linecount" : 2,
					"maxclass" : "message",
					"numinlets" : 2,
					"numoutlets" : 1,
					"outlettype" : [ "" ],
					"patching_rect" : [ 1676.666663646697998, 25.5, 146.0, 35.0 ],
					"presentation_linecount" : 2,
					"text" : "comparison fo.compare.equal_chords"
				}

			}
, 			{
				"box" : 				{
					"id" : "obj-8",
					"maxclass" : "newobj",
					"numinlets" : 2,
					"numoutlets" : 3,
					"outlettype" : [ "bang", "", "dictionary" ],
					"patching_rect" : [ 1676.916663646697998, 144.5, 137.0, 22.0 ],
					"text" : "factor_oracle ORACLE3"
				}

			}
, 			{
				"box" : 				{
					"id" : "obj-5",
					"linecount" : 2,
					"maxclass" : "message",
					"numinlets" : 2,
					"numoutlets" : 1,
					"outlettype" : [ "" ],
					"patching_rect" : [ 113.0, 219.0, 274.0, 35.0 ],
					"presentation_linecount" : 2,
					"text" : "comparison fo.compare.equal_chords_in_3_semitone_range"
				}

			}
, 			{
				"box" : 				{
					"id" : "obj-59",
					"maxclass" : "message",
					"numinlets" : 2,
					"numoutlets" : 1,
					"outlettype" : [ "" ],
					"patching_rect" : [ 1277.0, 57.5, 98.0, 22.0 ],
					"text" : "name ORACLE2"
				}

			}
, 			{
				"box" : 				{
					"id" : "obj-57",
					"maxclass" : "message",
					"numinlets" : 2,
					"numoutlets" : 1,
					"outlettype" : [ "" ],
					"patching_rect" : [ 1385.0, 57.5, 98.0, 22.0 ],
					"text" : "name ORACLE1"
				}

			}
, 			{
				"box" : 				{
					"id" : "obj-53",
					"maxclass" : "dict.view",
					"numinlets" : 1,
					"numoutlets" : 0,
					"patching_rect" : [ 1336.0, 211.0, 296.0, 584.0 ]
				}

			}
, 			{
				"box" : 				{
					"id" : "obj-54",
					"maxclass" : "message",
					"numinlets" : 2,
					"numoutlets" : 1,
					"outlettype" : [ "" ],
					"patching_rect" : [ 1492.0, 57.5, 39.0, 22.0 ],
					"text" : "dump"
				}

			}
, 			{
				"box" : 				{
					"id" : "obj-55",
					"maxclass" : "newobj",
					"numinlets" : 2,
					"numoutlets" : 3,
					"outlettype" : [ "bang", "", "dictionary" ],
					"patching_rect" : [ 1277.0, 107.5, 78.0, 22.0 ],
					"text" : "factor_oracle"
				}

			}
, 			{
				"box" : 				{
					"id" : "obj-52",
					"maxclass" : "newobj",
					"numinlets" : 1,
					"numoutlets" : 1,
					"outlettype" : [ "" ],
					"patching_rect" : [ 621.0, 325.5, 57.0, 22.0 ],
					"text" : "tosymbol"
				}

			}
, 			{
				"box" : 				{
					"id" : "obj-51",
					"maxclass" : "newobj",
					"numinlets" : 1,
					"numoutlets" : 2,
					"outlettype" : [ "int", "bang" ],
					"patching_rect" : [ 580.0, 151.5, 101.5, 22.0 ],
					"text" : "t i b"
				}

			}
, 			{
				"box" : 				{
					"id" : "obj-50",
					"maxclass" : "message",
					"numinlets" : 2,
					"numoutlets" : 1,
					"outlettype" : [ "" ],
					"patching_rect" : [ 758.5, 332.5, 170.0, 22.0 ],
					"presentation_linecount" : 2,
					"text" : "name BEATS_WITH_LABELS"
				}

			}
, 			{
				"box" : 				{
					"id" : "obj-43",
					"maxclass" : "newobj",
					"numinlets" : 2,
					"numoutlets" : 1,
					"outlettype" : [ "int" ],
					"patching_rect" : [ 601.0, 246.5, 29.5, 22.0 ],
					"text" : "- 1"
				}

			}
, 			{
				"box" : 				{
					"id" : "obj-42",
					"maxclass" : "newobj",
					"numinlets" : 2,
					"numoutlets" : 3,
					"outlettype" : [ "bang", "bang", "int" ],
					"patching_rect" : [ 580.0, 197.5, 40.0, 22.0 ],
					"text" : "uzi"
				}

			}
, 			{
				"box" : 				{
					"id" : "obj-38",
					"maxclass" : "newobj",
					"numinlets" : 2,
					"numoutlets" : 2,
					"outlettype" : [ "", "" ],
					"patching_rect" : [ 580.0, 117.5, 37.0, 22.0 ],
					"text" : "zl.len"
				}

			}
, 			{
				"box" : 				{
					"id" : "obj-37",
					"maxclass" : "button",
					"numinlets" : 1,
					"numoutlets" : 1,
					"outlettype" : [ "bang" ],
					"parameter_enable" : 0,
					"patching_rect" : [ 399.0, 49.5, 24.0, 24.0 ]
				}

			}
, 			{
				"box" : 				{
					"id" : "obj-33",
					"maxclass" : "newobj",
					"numinlets" : 2,
					"numoutlets" : 4,
					"outlettype" : [ "dictionary", "", "", "" ],
					"patching_rect" : [ 559.0, 75.5, 50.5, 22.0 ],
					"saved_object_attributes" : 					{
						"embed" : 0,
						"parameter_enable" : 0,
						"parameter_mappable" : 0
					}
,
					"text" : "dict"
				}

			}
, 			{
				"box" : 				{
					"id" : "obj-32",
					"maxclass" : "message",
					"numinlets" : 2,
					"numoutlets" : 1,
					"outlettype" : [ "" ],
					"patching_rect" : [ 559.0, 25.5, 218.0, 22.0 ],
					"text" : "name BEATS_WITH_LABELS, getkeys"
				}

			}
, 			{
				"box" : 				{
					"id" : "obj-30",
					"linecount" : 2,
					"maxclass" : "newobj",
					"numinlets" : 2,
					"numoutlets" : 4,
					"outlettype" : [ "dictionary", "", "", "" ],
					"patching_rect" : [ 329.0, 225.0, 143.0, 35.0 ],
					"presentation_linecount" : 2,
					"saved_object_attributes" : 					{
						"embed" : 0,
						"parameter_enable" : 0,
						"parameter_mappable" : 0
					}
,
					"text" : "dict BEATS_WITH_LABELS"
				}

			}
, 			{
				"box" : 				{
					"id" : "obj-29",
					"maxclass" : "newobj",
					"numinlets" : 1,
					"numoutlets" : 1,
					"outlettype" : [ "" ],
					"patching_rect" : [ 329.0, 170.0, 126.0, 22.0 ],
					"text" : "dict.unpack grid_data:"
				}

			}
, 			{
				"box" : 				{
					"id" : "obj-27",
					"maxclass" : "message",
					"numinlets" : 2,
					"numoutlets" : 1,
					"outlettype" : [ "" ],
					"patching_rect" : [ 1153.0, 59.5, 35.0, 22.0 ],
					"text" : "clear"
				}

			}
, 			{
				"box" : 				{
					"id" : "obj-22",
					"maxclass" : "dict.view",
					"numinlets" : 1,
					"numoutlets" : 0,
					"patching_rect" : [ 973.0, 211.0, 296.0, 584.0 ]
				}

			}
, 			{
				"box" : 				{
					"id" : "obj-21",
					"maxclass" : "message",
					"numinlets" : 2,
					"numoutlets" : 1,
					"outlettype" : [ "" ],
					"patching_rect" : [ 1101.5, 59.5, 39.0, 22.0 ],
					"text" : "dump"
				}

			}
, 			{
				"box" : 				{
					"id" : "obj-17",
					"maxclass" : "dict.view",
					"numinlets" : 1,
					"numoutlets" : 0,
					"patching_rect" : [ 329.0, 304.0, 186.0, 594.0 ]
				}

			}
, 			{
				"box" : 				{
					"id" : "obj-9",
					"maxclass" : "message",
					"numinlets" : 2,
					"numoutlets" : 1,
					"outlettype" : [ "" ],
					"patching_rect" : [ 330.0, 25.5, 149.0, 22.0 ],
					"text" : "import AllINeed.json, bang"
				}

			}
, 			{
				"box" : 				{
					"id" : "obj-6",
					"linecount" : 2,
					"maxclass" : "newobj",
					"numinlets" : 2,
					"numoutlets" : 4,
					"outlettype" : [ "dictionary", "", "", "" ],
					"patching_rect" : [ 329.0, 89.5, 85.0, 35.0 ],
					"presentation_linecount" : 2,
					"saved_object_attributes" : 					{
						"embed" : 0,
						"parameter_enable" : 0,
						"parameter_mappable" : 0
					}
,
					"text" : "dict SONG_DATA"
				}

			}
, 			{
				"box" : 				{
					"id" : "obj-10",
					"linecount" : 2,
					"maxclass" : "message",
					"numinlets" : 2,
					"numoutlets" : 1,
					"outlettype" : [ "" ],
					"patching_rect" : [ 949.0, 57.5, 146.0, 35.0 ],
					"presentation_linecount" : 2,
					"text" : "comparison fo.compare.equal_chords"
				}

			}
, 			{
				"box" : 				{
					"id" : "obj-11",
					"maxclass" : "newobj",
					"numinlets" : 2,
					"numoutlets" : 3,
					"outlettype" : [ "bang", "", "dictionary" ],
					"patching_rect" : [ 855.0, 132.5, 137.0, 22.0 ],
					"text" : "factor_oracle ORACLE1"
				}

			}
, 			{
				"box" : 				{
					"id" : "obj-3",
					"maxclass" : "message",
					"numinlets" : 2,
					"numoutlets" : 1,
					"outlettype" : [ "" ],
					"patching_rect" : [ 103.0, 469.0, 50.0, 22.0 ],
					"text" : "-2"
				}

			}
, 			{
				"box" : 				{
					"id" : "obj-1",
					"maxclass" : "newobj",
					"numinlets" : 3,
					"numoutlets" : 2,
					"outlettype" : [ "", "" ],
					"patching_rect" : [ 36.0, 365.0, 152.0, 22.0 ],
					"text" : "djazz_factor_oracle_player",
					"varname" : "djazz_factor_oracle_player"
				}

			}
 ],
		"lines" : [ 			{
				"patchline" : 				{
					"destination" : [ "obj-3", 1 ],
					"source" : [ "obj-1", 1 ]
				}

			}
, 			{
				"patchline" : 				{
					"destination" : [ "obj-39", 1 ],
					"source" : [ "obj-1", 0 ]
				}

			}
, 			{
				"patchline" : 				{
					"destination" : [ "obj-11", 0 ],
					"source" : [ "obj-10", 0 ]
				}

			}
, 			{
				"patchline" : 				{
					"destination" : [ "obj-22", 0 ],
					"source" : [ "obj-11", 2 ]
				}

			}
, 			{
				"patchline" : 				{
					"destination" : [ "obj-6", 0 ],
					"source" : [ "obj-13", 0 ]
				}

			}
, 			{
				"patchline" : 				{
					"destination" : [ "obj-16", 0 ],
					"source" : [ "obj-14", 0 ]
				}

			}
, 			{
				"patchline" : 				{
					"destination" : [ "obj-52", 0 ],
					"source" : [ "obj-14", 1 ]
				}

			}
, 			{
				"patchline" : 				{
					"destination" : [ "obj-11", 0 ],
					"source" : [ "obj-15", 0 ]
				}

			}
, 			{
				"patchline" : 				{
					"destination" : [ "obj-15", 0 ],
					"source" : [ "obj-16", 0 ]
				}

			}
, 			{
				"patchline" : 				{
					"destination" : [ "obj-23", 0 ],
					"source" : [ "obj-20", 1 ]
				}

			}
, 			{
				"patchline" : 				{
					"destination" : [ "obj-24", 0 ],
					"source" : [ "obj-20", 0 ]
				}

			}
, 			{
				"patchline" : 				{
					"destination" : [ "obj-11", 0 ],
					"source" : [ "obj-21", 0 ]
				}

			}
, 			{
				"patchline" : 				{
					"destination" : [ "obj-25", 0 ],
					"source" : [ "obj-23", 1 ]
				}

			}
, 			{
				"patchline" : 				{
					"destination" : [ "obj-23", 0 ],
					"source" : [ "obj-24", 0 ]
				}

			}
, 			{
				"patchline" : 				{
					"destination" : [ "obj-25", 0 ],
					"source" : [ "obj-24", 1 ]
				}

			}
, 			{
				"patchline" : 				{
					"destination" : [ "obj-16", 1 ],
					"source" : [ "obj-25", 0 ]
				}

			}
, 			{
				"patchline" : 				{
					"destination" : [ "obj-11", 0 ],
					"source" : [ "obj-27", 0 ]
				}

			}
, 			{
				"patchline" : 				{
					"destination" : [ "obj-1", 1 ],
					"source" : [ "obj-28", 0 ]
				}

			}
, 			{
				"patchline" : 				{
					"destination" : [ "obj-30", 0 ],
					"source" : [ "obj-29", 0 ]
				}

			}
, 			{
				"patchline" : 				{
					"destination" : [ "obj-17", 0 ],
					"source" : [ "obj-30", 0 ]
				}

			}
, 			{
				"patchline" : 				{
					"destination" : [ "obj-33", 0 ],
					"source" : [ "obj-32", 0 ]
				}

			}
, 			{
				"patchline" : 				{
					"destination" : [ "obj-38", 0 ],
					"source" : [ "obj-33", 2 ]
				}

			}
, 			{
				"patchline" : 				{
					"destination" : [ "obj-1", 1 ],
					"source" : [ "obj-35", 0 ]
				}

			}
, 			{
				"patchline" : 				{
					"destination" : [ "obj-6", 0 ],
					"source" : [ "obj-37", 0 ]
				}

			}
, 			{
				"patchline" : 				{
					"destination" : [ "obj-51", 0 ],
					"source" : [ "obj-38", 0 ]
				}

			}
, 			{
				"patchline" : 				{
					"destination" : [ "obj-8", 0 ],
					"source" : [ "obj-4", 0 ]
				}

			}
, 			{
				"patchline" : 				{
					"destination" : [ "obj-1", 0 ],
					"source" : [ "obj-41", 0 ]
				}

			}
, 			{
				"patchline" : 				{
					"destination" : [ "obj-43", 0 ],
					"source" : [ "obj-42", 2 ]
				}

			}
, 			{
				"patchline" : 				{
					"destination" : [ "obj-14", 0 ],
					"source" : [ "obj-43", 0 ]
				}

			}
, 			{
				"patchline" : 				{
					"destination" : [ "obj-1", 1 ],
					"source" : [ "obj-45", 0 ]
				}

			}
, 			{
				"patchline" : 				{
					"destination" : [ "obj-1", 1 ],
					"source" : [ "obj-5", 0 ]
				}

			}
, 			{
				"patchline" : 				{
					"destination" : [ "obj-23", 0 ],
					"source" : [ "obj-50", 0 ]
				}

			}
, 			{
				"patchline" : 				{
					"destination" : [ "obj-42", 0 ],
					"source" : [ "obj-51", 0 ]
				}

			}
, 			{
				"patchline" : 				{
					"destination" : [ "obj-50", 0 ],
					"source" : [ "obj-51", 1 ]
				}

			}
, 			{
				"patchline" : 				{
					"destination" : [ "obj-20", 0 ],
					"source" : [ "obj-52", 0 ]
				}

			}
, 			{
				"patchline" : 				{
					"destination" : [ "obj-55", 0 ],
					"source" : [ "obj-54", 0 ]
				}

			}
, 			{
				"patchline" : 				{
					"destination" : [ "obj-53", 0 ],
					"source" : [ "obj-55", 2 ]
				}

			}
, 			{
				"patchline" : 				{
					"destination" : [ "obj-55", 0 ],
					"source" : [ "obj-57", 0 ]
				}

			}
, 			{
				"patchline" : 				{
					"destination" : [ "obj-55", 0 ],
					"source" : [ "obj-59", 0 ]
				}

			}
, 			{
				"patchline" : 				{
					"destination" : [ "obj-29", 0 ],
					"source" : [ "obj-6", 0 ]
				}

			}
, 			{
				"patchline" : 				{
					"destination" : [ "obj-8", 0 ],
					"source" : [ "obj-7", 0 ]
				}

			}
, 			{
				"patchline" : 				{
					"destination" : [ "obj-6", 0 ],
					"source" : [ "obj-9", 0 ]
				}

			}
 ],
		"dependency_cache" : [ 			{
				"name" : "djazz_factor_oracle_player.maxpat",
				"bootpath" : "~/Desktop/___Djazz_STMS_presentation_15_05_24/environments/2_modular_architecture/djazz_modular_architecture/patchers/factor_oracle_player",
				"patcherrelativepath" : "../factor_oracle_player",
				"type" : "JSON",
				"implicit" : 1
			}
, 			{
				"name" : "djazz_step_until_count.maxpat",
				"bootpath" : "~/Desktop/___Djazz_STMS_presentation_15_05_24/environments/2_modular_architecture/djazz_modular_architecture/patchers/tools/iterators",
				"patcherrelativepath" : "../tools/iterators",
				"type" : "JSON",
				"implicit" : 1
			}
, 			{
				"name" : "du.append_dict.maxpat",
				"bootpath" : "~/Desktop/___Djazz_STMS_presentation_15_05_24/environments/2_modular_architecture/djazz_modular_architecture/patchers/tools/dict/nested",
				"patcherrelativepath" : "../tools/dict/nested",
				"type" : "JSON",
				"implicit" : 1
			}
, 			{
				"name" : "du.dict_to_obj.maxpat",
				"bootpath" : "~/Desktop/___Djazz_STMS_presentation_15_05_24/environments/2_modular_architecture/djazz_modular_architecture/patchers/tools/dict/nested",
				"patcherrelativepath" : "../tools/dict/nested",
				"type" : "JSON",
				"implicit" : 1
			}
, 			{
				"name" : "du.does_index_exist.maxpat",
				"bootpath" : "~/Desktop/___Djazz_STMS_presentation_15_05_24/environments/2_modular_architecture/djazz_modular_architecture/patchers/tools/dict",
				"patcherrelativepath" : "../tools/dict",
				"type" : "JSON",
				"implicit" : 1
			}
, 			{
				"name" : "du.does_key_exist.maxpat",
				"bootpath" : "~/Desktop/___Djazz_STMS_presentation_15_05_24/environments/2_modular_architecture/djazz_modular_architecture/patchers/tools/dict",
				"patcherrelativepath" : "../tools/dict",
				"type" : "JSON",
				"implicit" : 1
			}
, 			{
				"name" : "du.get.maxpat",
				"bootpath" : "~/Desktop/___Djazz_STMS_presentation_15_05_24/environments/2_modular_architecture/djazz_modular_architecture/patchers/tools/dict",
				"patcherrelativepath" : "../tools/dict",
				"type" : "JSON",
				"implicit" : 1
			}
, 			{
				"name" : "du.get_at.maxpat",
				"bootpath" : "~/Desktop/___Djazz_STMS_presentation_15_05_24/environments/2_modular_architecture/djazz_modular_architecture/patchers/tools/dict",
				"patcherrelativepath" : "../tools/dict",
				"type" : "JSON",
				"implicit" : 1
			}
, 			{
				"name" : "du.get_at_no_error_check.maxpat",
				"bootpath" : "~/Desktop/___Djazz_STMS_presentation_15_05_24/environments/2_modular_architecture/djazz_modular_architecture/patchers/tools/dict",
				"patcherrelativepath" : "../tools/dict",
				"type" : "JSON",
				"implicit" : 1
			}
, 			{
				"name" : "du.get_last.maxpat",
				"bootpath" : "~/Desktop/___Djazz_STMS_presentation_15_05_24/environments/2_modular_architecture/djazz_modular_architecture/patchers/tools/dict",
				"patcherrelativepath" : "../tools/dict",
				"type" : "JSON",
				"implicit" : 1
			}
, 			{
				"name" : "du.get_size.maxpat",
				"bootpath" : "~/Desktop/___Djazz_STMS_presentation_15_05_24/environments/2_modular_architecture/djazz_modular_architecture/patchers/tools/dict",
				"patcherrelativepath" : "../tools/dict",
				"type" : "JSON",
				"implicit" : 1
			}
, 			{
				"name" : "du.name_to_obj.maxpat",
				"bootpath" : "~/Desktop/___Djazz_STMS_presentation_15_05_24/environments/2_modular_architecture/djazz_modular_architecture/patchers/tools/dict/nested",
				"patcherrelativepath" : "../tools/dict/nested",
				"type" : "JSON",
				"implicit" : 1
			}
, 			{
				"name" : "factor_oracle.maxpat",
				"bootpath" : "~/Desktop/___Djazz_STMS_presentation_15_05_24/environments/2_modular_architecture/djazz_modular_architecture/patchers/data_structures/factor_oracle",
				"patcherrelativepath" : "../data_structures/factor_oracle",
				"type" : "JSON",
				"implicit" : 1
			}
, 			{
				"name" : "fo.compare.equal_chords.maxpat",
				"bootpath" : "~/Desktop/___Djazz_STMS_presentation_15_05_24/environments/2_modular_architecture/djazz_modular_architecture/patchers/data_structures/factor_oracle/compare",
				"patcherrelativepath" : "../data_structures/factor_oracle/compare",
				"type" : "JSON",
				"implicit" : 1
			}
, 			{
				"name" : "fo.compare.equal_chords_in_3_semitone_range.maxpat",
				"bootpath" : "~/Desktop/___Djazz_STMS_presentation_15_05_24/environments/2_modular_architecture/djazz_modular_architecture/patchers/data_structures/factor_oracle/compare",
				"patcherrelativepath" : "../data_structures/factor_oracle/compare",
				"type" : "JSON",
				"implicit" : 1
			}
, 			{
				"name" : "fo.compare_labels.maxpat",
				"bootpath" : "~/Desktop/___Djazz_STMS_presentation_15_05_24/environments/2_modular_architecture/djazz_modular_architecture/patchers/data_structures/factor_oracle/compare",
				"patcherrelativepath" : "../data_structures/factor_oracle/compare",
				"type" : "JSON",
				"implicit" : 1
			}
, 			{
				"name" : "fo.link.get_label.maxpat",
				"bootpath" : "~/Desktop/___Djazz_STMS_presentation_15_05_24/environments/2_modular_architecture/djazz_modular_architecture/patchers/data_structures/factor_oracle/link",
				"patcherrelativepath" : "../data_structures/factor_oracle/link",
				"type" : "JSON",
				"implicit" : 1
			}
, 			{
				"name" : "fo.link.get_target_state.maxpat",
				"bootpath" : "~/Desktop/___Djazz_STMS_presentation_15_05_24/environments/2_modular_architecture/djazz_modular_architecture/patchers/data_structures/factor_oracle/link",
				"patcherrelativepath" : "../data_structures/factor_oracle/link",
				"type" : "JSON",
				"implicit" : 1
			}
, 			{
				"name" : "fo.link.make_new_link.maxpat",
				"bootpath" : "~/Desktop/___Djazz_STMS_presentation_15_05_24/environments/2_modular_architecture/djazz_modular_architecture/patchers/data_structures/factor_oracle/link",
				"patcherrelativepath" : "../data_structures/factor_oracle/link",
				"type" : "JSON",
				"implicit" : 1
			}
, 			{
				"name" : "fo.oracle.get_state_dict_name.maxpat",
				"bootpath" : "~/Desktop/___Djazz_STMS_presentation_15_05_24/environments/2_modular_architecture/djazz_modular_architecture/patchers/data_structures/factor_oracle/factor_oracle",
				"patcherrelativepath" : "../data_structures/factor_oracle/factor_oracle",
				"type" : "JSON",
				"implicit" : 1
			}
, 			{
				"name" : "fo.state.add_link.maxpat",
				"bootpath" : "~/Desktop/___Djazz_STMS_presentation_15_05_24/environments/2_modular_architecture/djazz_modular_architecture/patchers/data_structures/factor_oracle/state",
				"patcherrelativepath" : "../data_structures/factor_oracle/state",
				"type" : "JSON",
				"implicit" : 1
			}
, 			{
				"name" : "fo.state.get_label.maxpat",
				"bootpath" : "~/Desktop/___Djazz_STMS_presentation_15_05_24/environments/2_modular_architecture/djazz_modular_architecture/patchers/data_structures/factor_oracle/state",
				"patcherrelativepath" : "../data_structures/factor_oracle/state",
				"type" : "JSON",
				"implicit" : 1
			}
, 			{
				"name" : "fo.state.get_matching_link.maxpat",
				"bootpath" : "~/Desktop/___Djazz_STMS_presentation_15_05_24/environments/2_modular_architecture/djazz_modular_architecture/patchers/data_structures/factor_oracle/state",
				"patcherrelativepath" : "../data_structures/factor_oracle/state",
				"type" : "JSON",
				"implicit" : 1
			}
, 			{
				"name" : "fo.state.get_suffix_link.maxpat",
				"bootpath" : "~/Desktop/___Djazz_STMS_presentation_15_05_24/environments/2_modular_architecture/djazz_modular_architecture/patchers/data_structures/factor_oracle/state",
				"patcherrelativepath" : "../data_structures/factor_oracle/state",
				"type" : "JSON",
				"implicit" : 1
			}
, 			{
				"name" : "fo.state.set_suffix_link.maxpat",
				"bootpath" : "~/Desktop/___Djazz_STMS_presentation_15_05_24/environments/2_modular_architecture/djazz_modular_architecture/patchers/data_structures/factor_oracle/state",
				"patcherrelativepath" : "../data_structures/factor_oracle/state",
				"type" : "JSON",
				"implicit" : 1
			}
 ],
		"autosave" : 0
	}

}
